# xmcd
#
# Track frame offsets:
#	150
#	24688
#	44731
#	58858
#	72959
#	86534
#	104078
#	135927
#	150917
#	169979
#	192974
#	206566
#	228382
#	250852
#	284650
#
# Disc length: 4236 seconds
#
# Revision: 0
# Processed by: cddbd v1.5.2PL0 Copyright (c) Steve Scherf et al.
# Submitted via: EZCDAudioConverter 7.0.6.1
#
DISCID=db108a0f
DTITLE=Bill Brewster Presents Tribal Rites 1/3
DYEAR=1900
DGENRE=
TTITLE0=Agape - Rejoice
TTITLE1=Brent Dowe and The Gaytones - Reggae Makossa
TTITLE2=Apatchi Band - Issmak
TTITLE3=General Strike - Parts Of My Body
TTITLE4=Gaffa - Attitude Dancing (Land Of A 1000 Dunces)
TTITLE5=Urang Otan - Walking In The Jungle
TTITLE6=Surprize - Stavolta
TTITLE7=Deborah and The Puerto Ricans - Side A Side B Side
TTITLE8=P!Off? - Mein Walkman Ist Kaputt
TTITLE9=The Raincoats - Animal Rhapsody (Version)
TTITLE10=Ruts Dc - Push Yourself (Make It Work)
TTITLE11=Motion - Crazy Beat
TTITLE12=Peter Accident - Turning Black
TTITLE13=Reggae Clinic 65 - Caravan [Dub Version]
TTITLE14=Jeff Duff - Walk On The Wild Side
EXTD=
EXTT0=
EXTT1=
EXTT2=
EXTT3=
EXTT4=
EXTT5=
EXTT6=
EXTT7=
EXTT8=
EXTT9=
EXTT10=
EXTT11=
EXTT12=
EXTT13=
EXTT14=
PLAYORDER=
